<svg width="24" height="24" viewBox="0 0 24 24" fill="none" xmlns="http://www.w3.org/2000/svg">
  <path d="M12 24C18.6274 24 24 18.6274 24 12C24 5.37258 18.6274 0 12 0C5.37258 0 0 5.37258 0 12C0 18.6274 5.37258 24 12 24Z" fill="#F3BA2F"/>
  <path d="M9.087 10.803L12 7.89L14.916 10.806L16.669 9.053L12 4.384L7.334 9.05L9.087 10.803Z" fill="white"/>
  <path d="M7.334 12L9.087 10.247L7.334 8.494L5.581 10.247L7.334 12Z" fill="white"/>
  <path d="M9.087 13.197L12 16.11L14.916 13.194L16.669 14.944L12 19.616L7.334 14.95L9.084 13.197H9.087Z" fill="white"/>
  <path d="M16.669 12L18.422 10.247L16.669 8.494L14.916 10.247L16.669 12Z" fill="white"/>
  <path d="M12.003 10.247L13.756 12L12.003 13.753L10.25 12L12.003 10.247Z" fill="white"/>
</svg>
